<svg xmlns="http://www.w3.org/2000/svg" xmlns:xlink="http://www.w3.org/1999/xlink" width="2000" zoomAndPan="magnify" viewBox="0 0 1500 1499.999933" height="2000" preserveAspectRatio="xMidYMid meet" version="1.0"><defs><clipPath id="9bbff01166"><path d="M 690.28125 690.28125 L 809.53125 690.28125 L 809.53125 809.53125 L 690.28125 809.53125 Z M 690.28125 690.28125 " clip-rule="nonzero"/></clipPath><clipPath id="e64b3a8711"><path d="M 580.78125 552.679688 L 919.03125 552.679688 L 919.03125 947.179688 L 580.78125 947.179688 Z M 580.78125 552.679688 " clip-rule="nonzero"/></clipPath><clipPath id="9df39b355e"><path d="M 579.601562 914.386719 L 920.101562 914.386719 L 920.101562 1311.886719 L 579.601562 1311.886719 Z M 579.601562 914.386719 " clip-rule="nonzero"/></clipPath><clipPath id="3a8bae89aa"><path d="M 579.601562 188.253906 L 920.101562 188.253906 L 920.101562 585.753906 L 579.601562 585.753906 Z M 579.601562 188.253906 " clip-rule="nonzero"/></clipPath><clipPath id="8fd00a969b"><path d="M 891 395 L 1253 395 L 1253 784 L 891 784 Z M 891 395 " clip-rule="nonzero"/></clipPath><clipPath id="f24e635529"><path d="M 1323.296875 662.128906 L 961.472656 826.714844 L 820.484375 516.773438 L 1182.3125 352.1875 Z M 1323.296875 662.128906 " clip-rule="nonzero"/></clipPath><clipPath id="0fd857efcc"><path d="M 1323.296875 662.128906 L 961.472656 826.714844 L 820.484375 516.773438 L 1182.3125 352.1875 Z M 1323.296875 662.128906 " clip-rule="nonzero"/></clipPath><clipPath id="397c540e44"><path d="M 176 673 L 680 673 L 680 1148 L 176 1148 Z M 176 673 " clip-rule="nonzero"/></clipPath><clipPath id="01d944c581"><path d="M 679.273438 983.199219 L 317.449219 1147.785156 L 176.460938 837.84375 L 538.289062 673.257812 Z M 679.273438 983.199219 " clip-rule="nonzero"/></clipPath><clipPath id="3bf6ffd5b5"><path d="M 71 43 L 433 43 L 433 432 L 71 432 Z M 71 43 " clip-rule="nonzero"/></clipPath><clipPath id="a501909258"><path d="M 503.273438 310.199219 L 141.449219 474.785156 L 0.460938 164.84375 L 362.289062 0.257812 Z M 503.273438 310.199219 " clip-rule="nonzero"/></clipPath><clipPath id="9c061d28c9"><path d="M 362.394531 0.492188 L 0.570312 165.078125 L 141.554688 475.019531 L 503.378906 310.433594 Z M 362.394531 0.492188 " clip-rule="nonzero"/></clipPath><clipPath id="23e52ecaa2"><rect x="0" width="504" y="0" height="475"/></clipPath><clipPath id="7c2da2614f"><path d="M 796 706 L 1299 706 L 1299 1181 L 796 1181 Z M 796 706 " clip-rule="nonzero"/></clipPath><clipPath id="cb0dd065bb"><path d="M 1298.859375 1016.085938 L 937.035156 1180.675781 L 796.050781 870.734375 L 1157.875 706.144531 Z M 1298.859375 1016.085938 " clip-rule="nonzero"/></clipPath><clipPath id="b06e065ccd"><path d="M 70 43 L 433 43 L 433 432 L 70 432 Z M 70 43 " clip-rule="nonzero"/></clipPath><clipPath id="587859ee9b"><path d="M 502.859375 310.085938 L 141.035156 474.675781 L 0.0507812 164.734375 L 361.875 0.144531 Z M 502.859375 310.085938 " clip-rule="nonzero"/></clipPath><clipPath id="13a06a8d2e"><path d="M 361.980469 0.382812 L 0.15625 164.96875 L 141.140625 474.910156 L 502.964844 310.320312 Z M 361.980469 0.382812 " clip-rule="nonzero"/></clipPath><clipPath id="7e1297429e"><rect x="0" width="503" y="0" height="475"/></clipPath><clipPath id="dfe8953422"><path d="M 200 318 L 704 318 L 704 793 L 200 793 Z M 200 318 " clip-rule="nonzero"/></clipPath><clipPath id="1f1be930f1"><path d="M 703.640625 628.339844 L 341.816406 792.925781 L 200.832031 482.984375 L 562.65625 318.398438 Z M 703.640625 628.339844 " clip-rule="nonzero"/></clipPath><clipPath id="f33a9c446b"><path d="M 71 43 L 434 43 L 434 432 L 71 432 Z M 71 43 " clip-rule="nonzero"/></clipPath><clipPath id="4ead53c55c"><path d="M 503.640625 310.339844 L 141.816406 474.925781 L 0.832031 164.984375 L 362.65625 0.398438 Z M 503.640625 310.339844 " clip-rule="nonzero"/></clipPath><clipPath id="5513114e57"><path d="M 362.761719 0.632812 L 0.9375 165.222656 L 141.921875 475.160156 L 503.75 310.574219 Z M 362.761719 0.632812 " clip-rule="nonzero"/></clipPath><clipPath id="50bde9d78f"><rect x="0" width="504" y="0" height="475"/></clipPath><clipPath id="392f645d41"><path d="M 490.898438 447.488281 L 1009.148438 447.488281 L 1009.148438 1052.738281 L 490.898438 1052.738281 Z M 490.898438 447.488281 " clip-rule="nonzero"/></clipPath><clipPath id="3463f21fb3"><path d="M 489 1002.023438 L 1010.789062 1002.023438 L 1010.789062 1500 L 489 1500 Z M 489 1002.023438 " clip-rule="nonzero"/></clipPath><clipPath id="f18e038b98"><path d="M 489 0 L 1010.789062 0 L 1010.789062 497.761719 L 489 497.761719 Z M 489 0 " clip-rule="nonzero"/></clipPath><clipPath id="7bb688d33b"><path d="M 966 206 L 1500 206 L 1500 802 L 966 802 Z M 966 206 " clip-rule="nonzero"/></clipPath><clipPath id="7941054e98"><path d="M 1628.945312 615.277344 L 1074.601562 867.4375 L 858.46875 392.285156 L 1412.808594 140.128906 Z M 1628.945312 615.277344 " clip-rule="nonzero"/></clipPath><clipPath id="5916f04898"><path d="M 1628.945312 615.277344 L 1074.601562 867.4375 L 858.46875 392.285156 L 1412.808594 140.128906 Z M 1628.945312 615.277344 " clip-rule="nonzero"/></clipPath><clipPath id="0f7328394b"><path d="M 0 632 L 642 632 L 642 1360 L 0 1360 Z M 0 632 " clip-rule="nonzero"/></clipPath><clipPath id="e459a50c3c"><path d="M 641.570312 1107.523438 L 87.226562 1359.679688 L -128.910156 884.53125 L 425.433594 632.371094 Z M 641.570312 1107.523438 " clip-rule="nonzero"/></clipPath><clipPath id="901123ef74"><path d="M 0 66 L 534 66 L 534 662 L 0 662 Z M 0 66 " clip-rule="nonzero"/></clipPath><clipPath id="a796c222ef"><path d="M 641.570312 475.523438 L 87.226562 727.679688 L -128.910156 252.53125 L 425.433594 0.371094 Z M 641.570312 475.523438 " clip-rule="nonzero"/></clipPath><clipPath id="35d1e2dcd3"><path d="M 425.585938 0.699219 L -128.757812 252.859375 L 87.378906 728.011719 L 641.722656 475.851562 Z M 425.585938 0.699219 " clip-rule="nonzero"/></clipPath><clipPath id="2bd17305d2"><rect x="0" width="642" y="0" height="728"/></clipPath><clipPath id="7cf67600c1"><path d="M 821 682 L 1500 682 L 1500 1411 L 821 1411 Z M 821 682 " clip-rule="nonzero"/></clipPath><clipPath id="c851794274"><path d="M 1591.480469 1157.945312 L 1037.136719 1410.105469 L 821 934.953125 L 1375.34375 682.796875 Z M 1591.480469 1157.945312 " clip-rule="nonzero"/></clipPath><clipPath id="0e6e1c6961"><path d="M 108 67 L 663 67 L 663 663 L 108 663 Z M 108 67 " clip-rule="nonzero"/></clipPath><clipPath id="0deae6f8e0"><path d="M 770.480469 475.945312 L 216.136719 728.105469 L 0 252.953125 L 554.34375 0.796875 Z M 770.480469 475.945312 " clip-rule="nonzero"/></clipPath><clipPath id="d3230f8eba"><path d="M 554.496094 1.125 L 0.152344 253.285156 L 216.289062 728.4375 L 770.632812 476.277344 Z M 554.496094 1.125 " clip-rule="nonzero"/></clipPath><clipPath id="126d08fe45"><rect x="0" width="679" y="0" height="729"/></clipPath><clipPath id="896e1aa1a8"><path d="M 0 88 L 679 88 L 679 816 L 0 816 Z M 0 88 " clip-rule="nonzero"/></clipPath><clipPath id="d9070bf060"><path d="M 678.929688 563.476562 L 124.585938 815.636719 L -91.550781 340.484375 L 462.792969 88.324219 Z M 678.929688 563.476562 " clip-rule="nonzero"/></clipPath><clipPath id="18b8030848"><path d="M 16 66 L 571 66 L 571 662 L 16 662 Z M 16 66 " clip-rule="nonzero"/></clipPath><clipPath id="7177a0d76f"><path d="M 678.929688 475.476562 L 124.585938 727.636719 L -91.550781 252.484375 L 462.792969 0.324219 Z M 678.929688 475.476562 " clip-rule="nonzero"/></clipPath><clipPath id="26fe7f58c2"><path d="M 462.945312 0.65625 L -91.398438 252.816406 L 124.738281 727.96875 L 679.082031 475.808594 Z M 462.945312 0.65625 " clip-rule="nonzero"/></clipPath><clipPath id="0a615b7cd6"><rect x="0" width="679" y="0" height="728"/></clipPath></defs><rect x="-150" width="1800" fill="#ffffff" y="-149.999993" height="1799.99992" fill-opacity="1"/><rect x="-150" width="1800" fill="#4f46e5" y="-149.999993" height="1799.99992" fill-opacity="1"/><g clip-path="url(#9bbff01166)"><path fill="#ffffff" d="M 809.6875 749.980469 C 809.6875 751.9375 809.589844 753.886719 809.398438 755.832031 C 809.207031 757.78125 808.921875 759.710938 808.539062 761.628906 C 808.15625 763.546875 807.683594 765.441406 807.117188 767.3125 C 806.546875 769.183594 805.890625 771.023438 805.140625 772.828125 C 804.394531 774.636719 803.558594 776.402344 802.636719 778.125 C 801.714844 779.851562 800.710938 781.527344 799.625 783.152344 C 798.539062 784.777344 797.375 786.347656 796.132812 787.859375 C 794.894531 789.371094 793.582031 790.816406 792.199219 792.199219 C 790.816406 793.582031 789.371094 794.894531 787.859375 796.132812 C 786.347656 797.375 784.777344 798.539062 783.152344 799.625 C 781.527344 800.710938 779.851562 801.714844 778.125 802.636719 C 776.402344 803.558594 774.636719 804.394531 772.828125 805.140625 C 771.023438 805.890625 769.183594 806.546875 767.3125 807.117188 C 765.441406 807.683594 763.546875 808.15625 761.628906 808.539062 C 759.710938 808.921875 757.78125 809.207031 755.832031 809.398438 C 753.886719 809.589844 751.9375 809.6875 749.980469 809.6875 C 748.027344 809.6875 746.074219 809.589844 744.128906 809.398438 C 742.183594 809.207031 740.25 808.921875 738.332031 808.539062 C 736.414062 808.15625 734.519531 807.683594 732.648438 807.117188 C 730.777344 806.546875 728.941406 805.890625 727.132812 805.140625 C 725.328125 804.394531 723.5625 803.558594 721.835938 802.636719 C 720.113281 801.714844 718.4375 800.710938 716.8125 799.625 C 715.183594 798.539062 713.617188 797.375 712.105469 796.132812 C 710.59375 794.894531 709.144531 793.582031 707.761719 792.199219 C 706.378906 790.816406 705.070312 789.371094 703.828125 787.859375 C 702.585938 786.347656 701.425781 784.777344 700.339844 783.152344 C 699.25 781.527344 698.246094 779.851562 697.324219 778.125 C 696.402344 776.402344 695.570312 774.636719 694.820312 772.828125 C 694.074219 771.023438 693.414062 769.183594 692.847656 767.3125 C 692.277344 765.441406 691.804688 763.546875 691.421875 761.628906 C 691.042969 759.710938 690.753906 757.78125 690.5625 755.832031 C 690.371094 753.886719 690.277344 751.9375 690.277344 749.980469 C 690.277344 748.027344 690.371094 746.074219 690.5625 744.128906 C 690.753906 742.183594 691.042969 740.25 691.421875 738.332031 C 691.804688 736.414062 692.277344 734.519531 692.847656 732.648438 C 693.414062 730.777344 694.074219 728.941406 694.820312 727.132812 C 695.570312 725.328125 696.402344 723.5625 697.324219 721.835938 C 698.246094 720.113281 699.25 718.4375 700.339844 716.8125 C 701.425781 715.183594 702.585938 713.617188 703.828125 712.105469 C 705.070312 710.59375 706.378906 709.144531 707.761719 707.761719 C 709.144531 706.378906 710.59375 705.070312 712.105469 703.828125 C 713.617188 702.585938 715.183594 701.425781 716.8125 700.339844 C 718.4375 699.25 720.113281 698.246094 721.835938 697.324219 C 723.5625 696.402344 725.328125 695.570312 727.132812 694.820312 C 728.941406 694.070312 730.777344 693.414062 732.648438 692.847656 C 734.519531 692.277344 736.414062 691.804688 738.332031 691.421875 C 740.25 691.042969 742.183594 690.753906 744.128906 690.5625 C 746.074219 690.371094 748.027344 690.277344 749.980469 690.277344 C 751.9375 690.277344 753.886719 690.371094 755.832031 690.5625 C 757.78125 690.753906 759.710938 691.042969 761.628906 691.421875 C 763.546875 691.804688 765.441406 692.277344 767.3125 692.847656 C 769.183594 693.414062 771.023438 694.070312 772.828125 694.820312 C 774.636719 695.570312 776.402344 696.402344 778.125 697.324219 C 779.851562 698.246094 781.527344 699.25 783.152344 700.339844 C 784.777344 701.425781 786.347656 702.585938 787.859375 703.828125 C 789.371094 705.070312 790.816406 706.378906 792.199219 707.761719 C 793.582031 709.144531 794.894531 710.59375 796.132812 712.105469 C 797.375 713.617188 798.539062 715.183594 799.625 716.8125 C 800.710938 718.4375 801.714844 720.113281 802.636719 721.835938 C 803.558594 723.5625 804.394531 725.328125 805.140625 727.132812 C 805.890625 728.941406 806.546875 730.777344 807.117188 732.648438 C 807.683594 734.519531 808.15625 736.414062 808.539062 738.332031 C 808.921875 740.25 809.207031 742.183594 809.398438 744.128906 C 809.589844 746.074219 809.6875 748.027344 809.6875 749.980469 Z M 809.6875 749.980469 " fill-opacity="1" fill-rule="nonzero"/></g><g clip-path="url(#e64b3a8711)"><path fill="#ffffff" d="M 890.855469 828.1875 L 749.980469 914.269531 L 609.105469 828.1875 L 609.105469 671.949219 L 749.980469 585.867188 L 890.855469 671.949219 L 890.855469 828.1875 M 919.03125 843.984375 L 919.03125 656.152344 L 749.980469 552.84375 L 580.933594 656.152344 L 580.933594 843.984375 L 749.980469 947.292969 Z M 919.03125 843.984375 " fill-opacity="1" fill-rule="nonzero"/></g><g clip-path="url(#9df39b355e)"><path fill="#4f46e5" d="M 891.746094 1191.636719 L 749.980469 1278.265625 L 608.210938 1191.636719 L 608.210938 1034.40625 L 749.980469 947.777344 L 891.746094 1034.40625 L 891.746094 1191.636719 M 920.101562 1207.53125 L 920.101562 1018.507812 L 749.980469 914.546875 L 579.859375 1018.507812 L 579.859375 1207.53125 L 749.980469 1311.496094 Z M 920.101562 1207.53125 " fill-opacity="1" fill-rule="nonzero"/></g><g clip-path="url(#3a8bae89aa)"><path fill="#4f46e5" d="M 891.746094 465.5 L 749.980469 552.132812 L 608.210938 465.5 L 608.210938 308.273438 L 749.980469 221.644531 L 891.746094 308.273438 L 891.746094 465.5 M 920.101562 481.398438 L 920.101562 292.375 L 749.980469 188.414062 L 579.859375 292.375 L 579.859375 481.398438 L 749.980469 585.363281 Z M 920.101562 481.398438 " fill-opacity="1" fill-rule="nonzero"/></g><g clip-path="url(#8fd00a969b)"><g clip-path="url(#f24e635529)"><g clip-path="url(#0fd857efcc)"><path fill="#4f46e5" d="M 1059.191406 751.117188 L 921.636719 657.941406 L 941.792969 493.027344 L 1084.910156 427.925781 L 1222.464844 521.101562 L 1202.308594 686.015625 L 1059.191406 751.117188 M 1056.460938 783.507812 L 1228.519531 705.242188 L 1252.710938 507.339844 L 1087.640625 395.535156 L 915.582031 473.800781 L 891.386719 671.699219 Z M 1056.460938 783.507812 " fill-opacity="1" fill-rule="nonzero"/></g></g></g><g clip-path="url(#397c540e44)"><g clip-path="url(#01d944c581)"><g transform="matrix(1, 0, 0, 1, 176, 673)"><g clip-path="url(#23e52ecaa2)"><g clip-path="url(#3bf6ffd5b5)"><g clip-path="url(#a501909258)"><g clip-path="url(#9c061d28c9)"><path fill="#4f46e5" d="M 121.769531 141.097656 L 101.613281 306.011719 L 239.167969 399.183594 L 382.285156 334.082031 L 402.441406 169.167969 L 264.886719 75.996094 L 121.769531 141.097656 M 95.558594 121.871094 L 267.617188 43.605469 L 432.6875 155.410156 L 408.496094 353.308594 L 236.4375 431.574219 L 71.363281 319.769531 Z M 95.558594 121.871094 " fill-opacity="1" fill-rule="nonzero"/></g></g></g></g></g></g></g><g clip-path="url(#7c2da2614f)"><g clip-path="url(#cb0dd065bb)"><g transform="matrix(1, 0, 0, 1, 796, 706)"><g clip-path="url(#7e1297429e)"><g clip-path="url(#b06e065ccd)"><g clip-path="url(#587859ee9b)"><g clip-path="url(#13a06a8d2e)"><path fill="#4f46e5" d="M 121.355469 140.984375 L 101.199219 305.898438 L 238.753906 399.074219 L 381.871094 333.972656 L 402.027344 169.058594 L 264.472656 75.882812 L 121.355469 140.984375 M 95.144531 121.757812 L 267.203125 43.492188 L 432.273438 155.300781 L 408.082031 353.199219 L 236.023438 431.464844 L 70.953125 319.660156 Z M 95.144531 121.757812 " fill-opacity="1" fill-rule="nonzero"/></g></g></g></g></g></g></g><g clip-path="url(#dfe8953422)"><g clip-path="url(#1f1be930f1)"><g transform="matrix(1, 0, 0, 1, 200, 318)"><g clip-path="url(#50bde9d78f)"><g clip-path="url(#f33a9c446b)"><g clip-path="url(#4ead53c55c)"><g clip-path="url(#5513114e57)"><path fill="#4f46e5" d="M 122.136719 141.238281 L 101.980469 306.152344 L 239.535156 399.328125 L 382.652344 334.226562 L 402.808594 169.3125 L 265.253906 76.136719 L 122.136719 141.238281 M 95.925781 122.011719 L 267.984375 43.746094 L 433.058594 155.554688 L 408.863281 353.453125 L 236.804688 431.71875 L 71.734375 319.910156 Z M 95.925781 122.011719 " fill-opacity="1" fill-rule="nonzero"/></g></g></g></g></g></g></g><g clip-path="url(#392f645d41)"><path fill="#ffffff" d="M 965.953125 869.875 L 749.972656 1001.855469 L 533.988281 869.875 L 533.988281 630.339844 L 749.972656 498.359375 L 965.953125 630.339844 L 965.953125 869.875 M 1009.148438 894.09375 L 1009.148438 606.121094 L 749.972656 447.734375 L 490.792969 606.121094 L 490.792969 894.09375 L 749.972656 1052.480469 Z M 1009.148438 894.09375 " fill-opacity="1" fill-rule="nonzero"/></g><g clip-path="url(#3463f21fb3)"><path fill="#4f46e5" d="M 967.320312 1427.085938 L 749.972656 1559.902344 L 532.621094 1427.085938 L 532.621094 1186.03125 L 749.972656 1053.21875 L 967.320312 1186.03125 L 967.320312 1427.085938 M 1010.789062 1451.457031 L 1010.789062 1161.660156 L 749.972656 1002.269531 L 489.152344 1161.660156 L 489.152344 1451.457031 L 749.972656 1610.847656 Z M 1010.789062 1451.457031 " fill-opacity="1" fill-rule="nonzero"/></g><g clip-path="url(#f18e038b98)"><path fill="#4f46e5" d="M 967.320312 313.824219 L 749.972656 446.640625 L 532.621094 313.824219 L 532.621094 72.769531 L 749.972656 -60.042969 L 967.320312 72.769531 L 967.320312 313.824219 M 1010.789062 338.199219 L 1010.789062 48.398438 L 749.972656 -110.988281 L 489.152344 48.398438 L 489.152344 338.199219 L 749.972656 497.585938 Z M 1010.789062 338.199219 " fill-opacity="1" fill-rule="nonzero"/></g><g clip-path="url(#7bb688d33b)"><g clip-path="url(#7941054e98)"><g clip-path="url(#5916f04898)"><path fill="#4f46e5" d="M 1224.035156 751.710938 L 1013.144531 608.859375 L 1044.046875 356.027344 L 1263.464844 256.214844 L 1474.355469 399.066406 L 1443.453125 651.898438 L 1224.035156 751.710938 M 1219.847656 801.371094 L 1483.636719 681.378906 L 1520.726562 377.972656 L 1267.652344 206.554688 L 1003.863281 326.546875 L 966.769531 629.953125 Z M 1219.847656 801.371094 " fill-opacity="1" fill-rule="nonzero"/></g></g></g><g clip-path="url(#0f7328394b)"><g clip-path="url(#e459a50c3c)"><g transform="matrix(1, 0, 0, 1, 0, 632)"><g clip-path="url(#2bd17305d2)"><g clip-path="url(#901123ef74)"><g clip-path="url(#a796c222ef)"><g clip-path="url(#35d1e2dcd3)"><path fill="#4f46e5" d="M 56.667969 216.269531 L 25.769531 469.101562 L 236.65625 611.953125 L 456.078125 512.144531 L 486.976562 259.308594 L 276.089844 116.460938 L 56.667969 216.269531 M 16.484375 186.792969 L 280.273438 66.800781 L 533.351562 238.214844 L 496.261719 541.621094 L 232.472656 661.613281 L -20.605469 490.199219 Z M 16.484375 186.792969 " fill-opacity="1" fill-rule="nonzero"/></g></g></g></g></g></g></g><g clip-path="url(#7cf67600c1)"><g clip-path="url(#c851794274)"><g transform="matrix(1, 0, 0, 1, 821, 682)"><g clip-path="url(#126d08fe45)"><g clip-path="url(#0e6e1c6961)"><g clip-path="url(#0deae6f8e0)"><g clip-path="url(#d3230f8eba)"><path fill="#4f46e5" d="M 185.578125 216.695312 L 154.679688 469.527344 L 365.570312 612.378906 L 584.988281 512.566406 L 615.890625 259.734375 L 405 116.882812 L 185.578125 216.695312 M 145.394531 187.214844 L 409.1875 67.222656 L 662.261719 238.640625 L 625.171875 542.042969 L 361.382812 662.039062 L 108.304688 490.621094 Z M 145.394531 187.214844 " fill-opacity="1" fill-rule="nonzero"/></g></g></g></g></g></g></g><g clip-path="url(#896e1aa1a8)"><g clip-path="url(#d9070bf060)"><g transform="matrix(1, 0, 0, 1, 0, 88)"><g clip-path="url(#0a615b7cd6)"><g clip-path="url(#18b8030848)"><g clip-path="url(#7177a0d76f)"><g clip-path="url(#26fe7f58c2)"><path fill="#4f46e5" d="M 94.027344 216.222656 L 63.128906 469.058594 L 274.015625 611.90625 L 493.4375 512.097656 L 524.335938 259.265625 L 313.449219 116.414062 L 94.027344 216.222656 M 53.84375 186.746094 L 317.632812 66.753906 L 570.710938 238.167969 L 533.621094 541.574219 L 269.832031 661.566406 L 16.753906 490.152344 Z M 53.84375 186.746094 " fill-opacity="1" fill-rule="nonzero"/></g></g></g></g></g></g></g></svg>